Coordinates
version=1
nRows=11
nColumns=36
inDegrees=yes

Units are S.I. units (second, meters, Newtons, ...)
If the header above contains a line with 'inDegrees', this indicates whether rotational values are in degrees (yes) or radians (no).

endheader
time	pelvis_tilt	pelvis_list	pelvis_rotation	pelvis_tx	pelvis_ty	pelvis_tz	hip_flexion_r	hip_adduction_r	hip_rotation_r	knee_angle_r	knee_angle_r_beta	ankle_angle_r	subtalar_angle_r	mtp_angle_r	hip_flexion_l	hip_adduction_l	hip_rotation_l	knee_angle_l	knee_angle_l_beta	ankle_angle_l	subtalar_angle_l	mtp_angle_l	lumbar_extension	lumbar_bending	lumbar_rotation	arm_flex_r	arm_add_r	arm_rot_r	elbow_flex_r	pro_sup_r	arm_flex_l	arm_add_l	arm_rot_l	elbow_flex_l	pro_sup_l
      0.72000000	     -1.32533825	      2.36682353	     -2.33003979	      0.72919542	      0.93954545	     -0.20413420	     -5.64659887	     -3.86273930	     -4.31713664	     40.28069344	      0.70303073	     -0.81261594	      0.37288835	     -7.24993858	     21.38231235	      4.70247946	     -7.96128968	     16.33483339	      0.28509663	     -0.81433330	    -10.34315096	     -7.24993858	     -2.40703131	     -5.94414143	     12.95253358	     10.95221794	     -2.00478551	     -8.62968702	     45.39207783	    106.19940814	    -16.54877886	     -2.81455056	    -17.25394936	     16.73355191	     97.82740277
      0.73000000	     -1.13186025	      2.85814519	     -2.25316989	      0.73976512	      0.94048877	     -0.20613335	     -3.96342116	     -5.04038196	     -4.69858581	     44.08727159	      0.76946805	     -3.05390079	     -0.02689131	     -7.25293139	     20.44566654	      5.42210436	     -8.08179796	     16.35833167	      0.28550675	     -0.00513590	    -10.12596061	     -7.25293139	     -2.68285334	     -6.60365519	     12.26840329	     10.73047975	     -1.83262316	     -8.18565019	     44.68601982	    106.20976784	    -15.69433175	     -2.83679764	    -16.95177758	     17.24167399	     97.93549735
      0.74000000	     -0.96274901	      3.36624778	     -2.20801167	      0.75008792	      0.94132163	     -0.20800634	     -2.18432923	     -6.20643728	     -4.90130225	     47.83400878	      0.83486095	     -4.97605310	     -0.59759593	     -7.25565365	     19.46933479	      6.17491390	     -8.12681405	     16.22024691	      0.28309671	      0.73571283	     -9.97240614	     -7.25565365	     -2.92669908	     -7.27925613	     11.60280287	     10.53760677	     -1.66524202	     -7.73161664	     43.96893265	    106.22196331	    -14.78107360	     -2.91898452	    -16.61908391	     17.78894560	     98.05537344
      0.75000000	     -0.89196947	      3.73176378	     -2.19133031	      0.76016772	      0.94201048	     -0.20981733	     -0.26495042	     -7.17805319	     -4.99603028	     51.40697640	      0.89722100	     -6.40417382	     -1.55824326	     -7.25936023	     18.54060407	      6.77777749	     -8.12248146	     15.89995696	      0.27750660	      1.34990977	     -9.84325095	     -7.25936023	     -3.06205756	     -7.76289720	     10.94608419	     10.35394842	     -1.59661031	     -7.14479391	     43.07461542	    106.24170543	    -13.85960356	     -2.94209814	    -16.14640952	     18.41692241	     98.21865345
      0.76000000	     -0.84212085	      4.01313917	     -2.19464185	      0.76986630	      0.94268428	     -0.21142416	      1.72086825	     -7.94309735	     -4.88385284	     54.79051284	      0.95627485	     -7.39900846	     -2.97839091	     -7.26896757	     17.68565871	      7.27507569	     -8.04293904	     15.65636792	      0.27325517	      1.82495508	     -9.91249308	     -7.26896757	     -3.20896724	     -8.16185406	     10.17710098	     10.34328644	     -1.59313992	     -6.12965108	     41.96671598	    106.30094721	    -12.89864711	     -3.04781070	    -15.24649411	     18.95699534	     98.49939150
      0.77000000	     -0.61568644	      4.25946507	     -2.28047465	      0.77938117	      0.94365717	     -0.21286320	      3.51582108	     -8.62470492	     -4.64960014	     57.91704486	      1.01084313	     -7.41590791	     -3.71122491	     -7.27086812	     16.59397067	      7.73494268	     -7.97121484	     15.32774172	      0.26751956	      2.36592414	     -9.86623659	     -7.27086812	     -3.63999032	     -8.52312411	      9.63809009	     10.14158462	     -1.50766509	     -5.98910027	     41.42493703	    106.28677723	    -11.62468594	     -3.09522886	    -14.92730347	     19.45113273	     98.60018105
      0.78000000	     -0.66973313	      4.51379389	     -2.40902155	      0.78887633	      0.94434790	     -0.21416729	      5.66932001	     -9.26481940	     -4.38378746	     60.83931369	      1.06184634	     -6.84494369	     -4.88214544	     -7.27357024	     15.73300851	      8.17798143	     -7.98040014	     14.78672607	      0.25807706	      2.92536900	     -9.81807205	     -7.27357024	     -3.63763752	     -8.88066388	      9.21238372	      9.86845390	     -1.45310111	     -5.69248974	     40.54378751	    106.27886213	    -10.44395463	     -3.21252288	    -14.33485240	     19.99396092	     98.75346809
      0.79000000	     -0.71209240	      4.59970621	     -2.55031486	      0.79816380	      0.94520026	     -0.21528440	      7.78044912	     -9.58350430	     -4.01139059	     63.37661204	      1.10613055	     -6.04464294	     -6.03225955	     -7.27667888	     14.92247023	      8.40643545	     -7.99850740	     14.38890031	      0.25113369	      3.39177003	     -9.73071121	     -7.27667888	     -3.66620529	     -9.04699686	      8.73936217	      9.66242142	     -1.41129873	     -5.31555225	     39.60430734	    106.28315953	     -9.20798462	     -3.34464238	    -13.51394018	     20.42434469	     98.93150774
      0.80000000	     -0.81377319	      4.56497809	     -2.65725198	      0.80728587	      0.94614385	     -0.21635393	      9.90506769	     -9.65004900	     -3.59042854	     65.49757694	      1.14314837	     -5.25358018	     -7.10410639	     -7.29188887	     14.24135352	      8.45735618	     -8.26735039	     14.11754861	      0.24639771	      4.02864568	     -9.30119023	     -7.29188887	     -3.64044160	     -9.01888119	      8.22391187	      9.52514640	     -1.57887737	     -4.33554669	     38.35848358	    106.38552736	     -7.75491638	     -3.80328737	    -10.24124675	     19.94554476	     99.34238912
      0.81000000	     -0.81914967	      4.51305704	     -2.76838029	      0.81645724	      0.94734206	     -0.21737306	     11.83909529	     -9.64503797	     -3.19613557	     67.20136201	      1.17288503	     -4.37242127	     -8.03154564	     -7.29453621	     13.34416767	      8.53483119	     -8.30561477	     13.63045732	      0.23789636	      4.50138019	     -9.06374628	     -7.29453621	     -3.75622678	     -9.01032929	      7.78592844	      9.18941329	     -1.52622202	     -4.41803997	     37.58069485	    106.34271526	     -6.36065483	     -3.88853763	     -9.71206111	     20.37345413	     99.41039324
      0.82000000	     -0.91755338	      4.30363360	     -2.81043389	      0.82559268	      0.94856654	     -0.21833094	     13.76050062	     -9.36617909	     -2.84058745	     68.46054344	      1.19486189	     -3.77817031	     -8.75432473	     -7.30897252	     12.66493245	      8.35665895	     -8.79007439	     13.41216052	      0.23408636	      5.37804472	     -8.03601669	     -7.30897252	     -3.72178429	     -8.78062301	      7.26182902	      8.92074681	     -1.57332069	     -4.11128191	     36.45934112	    106.38125558	     -4.83631972	     -4.30587465	     -6.66006058	     19.97920102	     99.52224737
